<?xml version="1.0" encoding="UTF-8"?>
<svg width="25px" height="25px" viewBox="0 0 520 520" version="1.1" xmlns="http://www.w3.org/2000/svg" xmlns:xlink="http://www.w3.org/1999/xlink">
    <!-- Generator: Sketch 52.4 (67378) - http://www.bohemiancoding.com/sketch -->
    <title>Slice</title>
    <desc>Created with Sketch.</desc>
    <g id="Page-1" stroke="none" stroke-width="1" fill="none" fill-rule="evenodd">
        <g id="1120607-copy" transform="translate(78.000000, 4.000000)" fill-rule="nonzero">
            <g id="1302731" fill="#000000">
                <path d="M44.066406,331.046875 C44.019531,331.0625 43.972656,331.082031 43.925781,331.101562 C42.152344,331.832031 0.5,349.515625 0.5,398.1875 L0.5,491.308594 C0.5,502.714844 9.78125,511.996094 21.1875,511.996094 L173.699219,511.996094 C177.84375,511.996094 181.199219,508.640625 181.199219,504.496094 C181.199219,500.355469 177.84375,496.996094 173.699219,496.996094 L77.800781,496.996094 L77.800781,419.761719 C77.800781,415.617188 74.445312,412.261719 70.300781,412.261719 C66.15625,412.261719 62.800781,415.617188 62.800781,419.761719 L62.800781,496.996094 L21.191406,496.996094 C18.054688,496.996094 15.5,494.445312 15.5,491.308594 L15.5,398.1875 C15.5,360.109375 47.648438,345.820312 49.582031,344.996094 L110.046875,321.554688 L136.636719,374.839844 C140.386719,382.359375 150.003906,384.8125 156.902344,379.910156 L183.699219,360.878906 L183.699219,419.757812 C183.699219,423.902344 187.058594,427.261719 191.199219,427.261719 C195.34375,427.261719 198.699219,423.902344 198.699219,419.757812 L198.699219,360.917969 L225.441406,379.910156 C232.339844,384.808594 241.953125,382.371094 245.710938,374.839844 L272.296875,321.554688 L332.808594,344.992188 C334.933594,345.898438 366.898438,360.214844 366.898438,398.183594 L366.898438,423.476562 C366.898438,427.617188 370.257812,430.976562 374.402344,430.976562 C378.542969,430.976562 381.902344,427.617188 381.902344,423.476562 L381.902344,398.183594 C381.902344,349.511719 340.25,331.828125 338.472656,331.101562 C338.425781,331.078125 338.378906,331.0625 338.332031,331.042969 L238.28125,292.296875 L238.28125,267.988281 C254.261719,255.691406 265.304688,237.292969 267.890625,216.300781 C287.050781,215.292969 301.242188,199.90625 301.242188,181.664062 C301.242188,176.210938 299.945312,170.890625 297.507812,166.082031 C297.996094,163.332031 297.992188,160.472656 297.441406,157.628906 C291.464844,126.777344 292.707031,136.132812 291.140625,113.738281 C287.886719,67.257812 254.5,29.464844 209.191406,21.113281 L209.191406,18.878906 C209.191406,8.46875 200.71875,2.84217094e-14 190.308594,2.84217094e-14 C179.898438,2.84217094e-14 171.429688,8.46875 171.429688,18.878906 L171.429688,21.113281 C155.433594,24.0625 140.503906,30.765625 127.53125,40.960938 C105.355469,58.390625 91.496094,84.9375 89.496094,113.789062 C88.015625,135.203125 89.3125,125.945312 83.175781,157.628906 C82.59375,160.632812 82.621094,163.652344 83.195312,166.542969 C80.699219,171.238281 79.375,176.398438 79.375,181.667969 C79.375,199.882812 93.535156,215.289062 112.71875,216.300781 C115.3125,237.53125 126.546875,256.660156 144.015625,269.199219 L144.015625,292.300781 L44.066406,331.046875 Z M191.171875,334.40625 L159.015625,294.707031 L159.015625,277.605469 C178.910156,285.976562 202.800781,286.414062 223.277344,277.042969 L223.277344,294.777344 L191.171875,334.40625 Z M258.246094,316.117188 L232.9375,366.835938 L202.003906,344.867188 L233.164062,306.402344 L258.246094,316.117188 Z M268.496094,201.195312 L268.496094,184.234375 C275.121094,185.933594 281.007812,185.09375 286.234375,182.113281 C286.015625,191.722656 278.851562,199.972656 268.496094,201.195312 Z M276.175781,114.785156 L276.828125,124.125 C252.722656,121.632812 249.785156,121.289062 240.523438,120.539062 L240.253906,110.800781 C239.691406,90.539062 234.316406,61.699219 224.746094,41.402344 C255.445312,54.632812 273.988281,83.472656 276.175781,114.785156 Z M194.191406,19.457031 C191.585938,19.355469 189.03125,19.355469 186.429688,19.457031 C186.429688,13.511719 194.191406,13.503906 194.191406,19.457031 Z M176.820312,35.421875 C185.246094,34.121094 194.527344,33.992188 203.785156,35.417969 C217.507812,52.777344 224.652344,89.265625 225.257812,111.21875 L225.488281,119.511719 C216.371094,119.097656 195.507812,117.269531 155.128906,119.511719 C155.359375,111.011719 155.390625,106.628906 156.078125,100.417969 C159.242188,71.917969 166.929688,47.9375 176.820312,35.421875 Z M104.460938,114.824219 C106.644531,83.316406 125.324219,54.578125 155.855469,41.410156 C148.828125,56.324219 143.679688,76.15625 141.167969,98.761719 C140.390625,105.777344 140.363281,110.585938 140.089844,120.542969 C130.863281,121.289062 128.375,121.589844 103.816406,124.128906 L104.460938,114.824219 Z M112.117188,201.195312 C101.746094,199.972656 94.570312,191.691406 94.378906,182.050781 C99.460938,184.953125 105.476562,185.953125 112.117188,184.234375 L112.117188,201.195312 Z M105.960938,170.101562 C101.109375,170.203125 96.890625,165.71875 97.90625,160.480469 L101.988281,139.398438 C181.386719,131.308594 203.535156,131.671875 278.628906,139.394531 C283.0625,162.277344 283.734375,162.652344 281.8125,166 C280.945312,167.503906 279.550781,168.816406 277.734375,169.558594 C273.066406,171.414062 269.679688,168.105469 243.242188,162.589844 C167.96875,146.941406 116.863281,169.855469 105.960938,170.101562 Z M127.160156,208.300781 C127.105469,206.496094 127.121094,210.058594 127.121094,180.351562 C169.566406,169.945312 209.234375,169.050781 253.496094,180.390625 C253.496094,210.96875 253.511719,205.984375 253.457031,208.363281 C252.355469,252.679688 206.460938,281.863281 164.203125,263.503906 C141.363281,253.492188 127.601562,230.800781 127.160156,208.300781 Z M149.140625,306.417969 L180.308594,344.890625 L149.410156,366.835938 L124.101562,316.117188 L149.140625,306.417969 Z M312.101562,412.261719 C307.957031,412.261719 304.601562,415.617188 304.601562,419.761719 L304.601562,496.996094 L208.703125,496.996094 C204.558594,496.996094 201.203125,500.355469 201.203125,504.496094 C201.203125,508.640625 204.558594,511.996094 208.703125,511.996094 L363.664062,511.996094 C373.722656,511.996094 381.902344,503.816406 381.902344,493.761719 L381.902344,458.476562 C381.902344,454.335938 378.542969,450.976562 374.402344,450.976562 C370.257812,450.976562 366.898438,454.335938 366.898438,458.476562 L366.898438,493.761719 C366.898438,495.546875 365.449219,496.996094 363.664062,496.996094 L319.601562,496.996094 L319.601562,419.761719 C319.601562,415.617188 316.246094,412.261719 312.101562,412.261719 Z" id="Shape"></path>
            </g>
            <path d="M194.5,476.261719 L194.5,532.5" id="Line-2-Copy" stroke="#000000" stroke-width="14.9" stroke-linecap="square" transform="translate(194.500000, 504.500000) rotate(90.000000) translate(-194.500000, -504.500000) "></path>
            <path d="M374.5,412.261719 L374.5,468.5" id="Line-2" stroke="#000000" stroke-width="14.9" stroke-linecap="square"></path>
        </g>
    </g>
</svg>